<svg xmlns="http://www.w3.org/2000/svg" width="21" height="21" viewBox="0 0 21 21">
    <g fill="none" fill-rule="evenodd" opacity=".898">
        <g fill="#E1C79B">
            <path d="M5.52.049H.187V2.54h2.666v7.533l5.723 5.534L20.3 10.116V.049H5.52zm-.174 8.613V2.54h12.462v5.72l-8.731 4.04-3.731-3.64zM17.362 18.162a.938.938 0 1 1 .002-1.876.938.938 0 0 1-.002 1.876m0-3.875a2.938 2.938 0 1 0 0 5.875 2.938 2.938 0 0 0 0-5.875M3.124 18.162a.938.938 0 1 1 .001-1.876.938.938 0 0 1-.001 1.876m0-3.875a2.938 2.938 0 1 0-.001 5.875 2.938 2.938 0 0 0 .001-5.875"/>
        </g>
    </g>
</svg>
