<svg xmlns="http://www.w3.org/2000/svg" xmlns:xlink="http://www.w3.org/1999/xlink" width="38" height="25" viewBox="0 0 38 25">
    <defs>
        <path id="a" d="M18.636.074H0V24.51h37.272V.074H18.636z"/>
    </defs>
    <g fill="none" fill-rule="evenodd">
        <path fill="#E7D0AC" d="M18.038 6.578a1.225 1.225 0 0 0-1.73.098l-4.149 4.65-2.472-2.428a1.226 1.226 0 0 0-1.717 1.749l3.389 3.328c.23.225.538.35.859.35h.04c.335-.01.651-.159.874-.409l5.004-5.608c.451-.505.407-1.28-.098-1.73M5.56 12.095H4.314a.613.613 0 1 0 0 1.226h1.248a.613.613 0 0 0 0-1.226M12.218 18.752a.613.613 0 0 0-.613.613v1.248a.613.613 0 0 0 1.226 0v-1.248a.613.613 0 0 0-.613-.613M20.735 12.708a.613.613 0 0 0-.612-.613h-1.248a.613.613 0 1 0 0 1.226h1.248a.613.613 0 0 0 .612-.613M12.218 6.664a.613.613 0 0 0 .613-.613V4.803a.613.613 0 0 0-1.226 0v1.248c0 .338.275.613.613.613"/>
        <g transform="translate(0 .416)">
            <mask id="b" fill="#fff">
                <use xlink:href="#a"/>
            </mask>
            <path fill="#E7D0AC" d="M25.054 22.549c-1.695 0-3.289-.422-4.698-1.154A12.2 12.2 0 0 0 24.34 13.8l2.625 2.625a1.222 1.222 0 0 0 1.733 0 1.225 1.225 0 0 0 0-1.733l-2.449-2.449L30.481 7.5a1.225 1.225 0 1 0-1.828-1.632l-4.332 4.77a12.205 12.205 0 0 0-3.964-7.448 10.14 10.14 0 0 1 4.697-1.155c5.656 0 10.257 4.601 10.257 10.257S30.71 22.55 25.054 22.55M1.96 12.292c0-5.656 4.601-10.257 10.257-10.257 5.655 0 10.257 4.601 10.257 10.257S17.873 22.55 12.218 22.55c-5.656 0-10.257-4.601-10.257-10.257M25.054.074c-2.353 0-4.55.671-6.417 1.828a12.144 12.144 0 0 0-6.42-1.828C5.482.074 0 5.555 0 12.292S5.48 24.51 12.218 24.51c2.355 0 4.555-.672 6.423-1.83a12.134 12.134 0 0 0 6.413 1.83c6.737 0 12.218-5.481 12.218-12.218S31.79.074 25.054.074" mask="url(#b)"/>
        </g>
        <path fill="#E7D0AC" d="M25.054 18.752a.613.613 0 0 0-.613.613v1.248a.613.613 0 0 0 1.226 0v-1.248a.613.613 0 0 0-.613-.613M32.959 12.095H31.71a.613.613 0 1 0 0 1.226h1.248a.613.613 0 0 0 0-1.226M25.054 4.19a.613.613 0 0 0-.613.613v1.248a.613.613 0 0 0 1.226 0V4.803a.613.613 0 0 0-.613-.612"/>
    </g>
</svg>
