<svg xmlns="http://www.w3.org/2000/svg" xmlns:xlink="http://www.w3.org/1999/xlink" width="29" height="29" viewBox="0 0 29 29">
    <defs>
        <path id="a" d="M0 29h29V0H0v29z"/>
    </defs>
    <g fill="none" fill-rule="evenodd">
        <mask id="b" fill="#fff">
            <use xlink:href="#a"/>
        </mask>
        <path fill="#E1C79B" d="M9.321 2.071c4.213 0 6.63.898 7.181 1.381-.552.484-2.968 1.382-7.18 1.382-4.213 0-6.63-.898-7.181-1.382.552-.483 2.968-1.38 7.18-1.38zM26.86 18.643c-.552.483-2.968 1.38-7.18 1.38s-6.629-.897-7.181-1.38c.552-.484 2.969-1.381 7.18-1.381 4.213 0 6.63.897 7.181 1.38zm-7.18 8.285c-4.454 0-6.905-1-7.25-1.45V23.9c2.037.863 5.11 1.24 7.25 1.24 2.14 0 5.213-.377 7.25-1.24v1.578c-.345.45-2.797 1.45-7.25 1.45zM2.07 20.645v-1.731c2.038.863 5.11 1.24 7.25 1.24.346 0 .69 0 1.036-.034v1.94c-.345 0-.69.035-1.036.035-4.453 0-6.904-1.001-7.25-1.45zm7.25-3.79c.518 0 1.879-.054 2.465-.123-1.695.53-1.429 1.731-1.429 2.284-.345 0-.69-.017-1.036-.017-4.453 0-6.904-1.001-7.25-1.45v-1.935c2.038.863 5.11 1.24 7.25 1.24zm0-3.147c2.14 0 5.213-.378 7.25-1.241v1.782c-.345.45-2.796 1.45-7.25 1.45-4.453 0-6.904-1-7.25-1.45v-1.782c2.038.863 5.11 1.24 7.25 1.24zm0-3.402c2.14 0 5.213-.428 7.25-1.292v2.088c-.345.449-2.796 1.45-7.25 1.45-4.453 0-6.904-1.001-7.25-1.45V9.014c2.038.864 5.11 1.292 7.25 1.292zm7.25-2.656c-.345.448-2.796 1.45-7.25 1.45-4.453 0-6.904-1.002-7.25-1.45V5.766c2.038.862 5.11 1.139 7.25 1.139 2.14 0 5.213-.277 7.25-1.14V7.65zm10.357 14.885c-.344.449-2.796 1.45-7.25 1.45-4.453 0-6.904-1.001-7.25-1.45v-1.579c2.038.863 5.11 1.14 7.25 1.14 2.14 0 5.214-.277 7.25-1.14v1.579zM9.321 24.167c.346 0 .69 0 1.036-.035v1.416c0 2.727 5.869 3.452 9.321 3.452C23.131 29 29 28.275 29 25.548v-6.905c0-2.727-5.869-3.452-9.322-3.452-.31 0-.69 0-1.035.034V3.452C18.643.725 12.773 0 9.32 0 5.87 0 .001.725.001 3.452v17.262c0 2.728 5.868 3.453 9.32 3.453z" mask="url(#b)"/>
    </g>
</svg>
