<svg xmlns="http://www.w3.org/2000/svg" xmlns:xlink="http://www.w3.org/1999/xlink" width="29" height="30" viewBox="0 0 29 30">
    <defs>
        <path id="a" d="M28.912.088V29H0V.088h28.912z"/>
    </defs>
    <g fill="none" fill-rule="evenodd">
        <path fill="#E1C79B" d="M14.456 15.615a3.205 3.205 0 0 1-3.2-3.2c0-1.766 1.435-3.201 3.2-3.201 1.764 0 3.2 1.435 3.2 3.2 0 1.765-1.436 3.2-3.2 3.2m0-8.72a5.527 5.527 0 0 0-5.52 5.52 5.527 5.527 0 0 0 5.52 5.52 5.527 5.527 0 0 0 5.52-5.52 5.527 5.527 0 0 0-5.52-5.52"/>
        <g transform="translate(0 .492)">
            <mask id="b" fill="#fff">
                <use xlink:href="#a"/>
            </mask>
            <path fill="#E1C79B" d="M23.607 22.49a7.648 7.648 0 0 0-6.65-3.836H11.955c-.487-.018-4.34-.033-6.651 3.836a12.074 12.074 0 0 1-2.985-7.947c0-6.691 5.444-12.135 12.136-12.135 6.691 0 12.136 5.444 12.136 12.135 0 3.04-1.132 5.816-2.985 7.948M7.052 24.138c1.653-3.262 4.686-3.17 4.807-3.166l2.597.002h2.526l.063-.001c.127-.01 3.162-.097 4.814 3.165a12.06 12.06 0 0 1-7.403 2.542 12.06 12.06 0 0 1-7.404-2.542M14.456.088C6.485.088 0 6.573 0 14.543 0 22.515 6.485 29 14.456 29c7.971 0 14.456-6.485 14.456-14.457 0-7.97-6.485-14.455-14.456-14.455" mask="url(#b)"/>
        </g>
    </g>
</svg>
