<svg xmlns="http://www.w3.org/2000/svg" width="50" height="50" viewBox="0 0 50 50">
    <g fill="#E1C79B" fill-rule="evenodd">
        <path d="M24.896 26.98a6.779 6.779 0 0 1-6.771-6.771 6.779 6.779 0 0 1 6.77-6.771 6.779 6.779 0 0 1 6.772 6.77 6.779 6.779 0 0 1-6.771 6.772m0-15.625c-4.883 0-8.854 3.971-8.854 8.854 0 4.882 3.971 8.854 8.854 8.854 4.882 0 8.854-3.972 8.854-8.854 0-4.883-3.972-8.854-8.854-8.854"/>
        <path d="M40.54 41.476c-3.845-7.287-10.802-7.12-11.061-7.1H20.355c-.306-.014-7.26-.187-11.102 7.1-4.41-4.161-7.17-10.053-7.17-16.58 0-12.579 10.234-22.812 22.812-22.812 12.58 0 22.813 10.233 22.813 22.812 0 6.527-2.76 12.419-7.169 16.58m-29.67 1.389c3.17-6.531 9.143-6.424 9.444-6.406h4.582l4.622-.001c.257.003 6.235-.124 9.406 6.407a22.69 22.69 0 0 1-14.028 4.843 22.687 22.687 0 0 1-14.027-4.843M24.895 0C11.168 0 .001 11.168.001 24.896c0 13.727 11.167 24.895 24.894 24.895 13.728 0 24.896-11.168 24.896-24.895C49.791 11.168 38.623 0 24.895 0"/>
    </g>
</svg>
