<svg xmlns="http://www.w3.org/2000/svg" xmlns:xlink="http://www.w3.org/1999/xlink" width="16" height="20" viewBox="0 0 16 20">
    <defs>
        <path id="a" d="M5.739 19.6V.142H.297V19.6H5.74z"/>
    </defs>
    <g fill="none" fill-rule="evenodd">
        <path fill="#E1C79B" d="M6.259 6.395c0 .116-.041.952-1.103 1.286V.6H3.13v7.08c-.972-.305-1.093-1.034-1.102-1.286V.6H0v5.795c0 .848.596 2.898 3.13 3.336V19.74h2.026V9.73c2.533-.437 3.13-2.487 3.13-3.335V.6H6.259v5.795z"/>
        <g transform="translate(9.919 .258)">
            <mask id="b" fill="#fff">
                <use xlink:href="#a"/>
            </mask>
            <path fill="#E1C79B" d="M3.712 12.641c-1.212-.3-1.368-1.12-1.388-1.346V3.777c0-.448.116-1.01 1.02-1.37.122-.048.247-.088.368-.12V12.64zM4.734.142c-.227 0-2.211.016-3.469 1.245-.633.62-.968 1.446-.968 2.39v7.58c.032 1.048.81 2.932 3.415 3.322v4.92h2.027V.152L4.734.142z" mask="url(#b)"/>
        </g>
    </g>
</svg>
