<svg xmlns="http://www.w3.org/2000/svg" width="123" height="67" viewBox="0 0 123 67">
    <defs>
        <path id="a" d="M122.857 65.906V.138H0v65.768h122.857H.827V.138h122.03v65.768z"/>
    </defs>
    <g fill="none" fill-rule="evenodd">
        <path fill="#E7D0AC" d="M48.97 23.55h7.573v15.763h2.983v3.825H48.971v-3.825h2.983V27.33H48.97zM53.744 55.674a2.257 2.257 0 0 0-2.25 2.259 2.257 2.257 0 0 0 2.25 2.258 2.257 2.257 0 0 0 2.249-2.258c0-1.245-.964-2.259-2.25-2.259m0 5.946c-2.019 0-3.625-1.66-3.625-3.641 0-1.982 1.652-3.641 3.626-3.641 1.973 0 3.625 1.659 3.625 3.64 0 1.982-1.606 3.642-3.625 3.642M56.406 8.895h-5.691a.707.707 0 0 1-.689-.691c0-.37.321-.692.689-.692h5.69c.368 0 .689.323.689.692a.677.677 0 0 1-.688.69"/>
        <path fill="#E7D0AC" d="M120.109 57.287h-3.856l-.046-.138c-1.01-2.304-3.258-3.825-5.782-3.825-2.525 0-4.774 1.475-5.783 3.825l-.046.138h-4.544V34.704h12.53l2.386 4.47h-9.408c-.78 0-1.423.646-1.423 1.43v8.019c0 .783.642 1.429 1.423 1.429h14.549v7.235zm-13.127 2.397c0-1.936 1.56-3.503 3.443-3.503a3.494 3.494 0 0 1 3.488 3.503c-.046 1.89-1.56 3.457-3.488 3.457s-3.443-1.567-3.443-3.457zm-19.507 3.963a6.305 6.305 0 0 0 1.333-3.318v-.184h15.237v.184a6.267 6.267 0 0 0 1.378 3.318H87.475zm-83.62-4.516h36.992c-.459 2.58-2.34 4.47-4.544 4.47H8.4c-2.203 0-4.085-1.935-4.544-4.47zm69.119 1.52v-.506h3.35v.184a6.267 6.267 0 0 0 1.378 3.318h-5.598c.548-.865.87-1.89.87-2.995zm6.242-.967c0-1.936 1.56-3.503 3.442-3.503 1.927 0 3.442 1.567 3.442 3.503 0 .922-.367 1.751-1.01 2.443a3.432 3.432 0 0 1-2.432 1.014c-1.928 0-3.442-1.567-3.442-3.457zm-6.242-35.857h19.919c1.376 0 2.432.37 3.12 1.107 1.194 1.198 1.194 3.041 1.194 3.226v29.127h-8.72l-.046-.138c-1.01-2.304-3.259-3.825-5.783-3.825-2.524 0-4.773 1.475-5.783 3.825l-.046.138h-3.855v-33.46zm46.263 23.321h-12.255v-5.162h9.5l2.755 5.162zm-78.482-6.775H3.488c.78-8.111 8.812-14.472 18.634-14.472 9.775 0 17.853 6.36 18.633 14.472zm82.016 7.42l-8.078-15.163c-.23-.46-.734-.737-1.24-.737h-13.355v-3.641c0-.323.046-3.18-1.973-5.254-1.285-1.29-3.03-1.982-5.187-1.982H72.974V6.037c0-3.087-2.478-5.576-5.553-5.576H40.113c-3.075 0-5.554 2.489-5.554 5.576V26.83c-3.503-2.203-7.814-3.51-12.483-3.51-11.704 0-21.25 8.204-21.25 18.343v1.291h42.5v-1.29c0-5.057-2.385-9.65-6.242-12.976V5.991a3.033 3.033 0 0 1 3.029-3.041v.046H67.42a3.032 3.032 0 0 1 3.029 3.041v54.615a3.035 3.035 0 0 1-2.52 2.995H41.5c1.27-1.501 2.056-3.547 2.056-5.807 0-.69-.55-1.29-1.285-1.29H2.432c-.688 0-1.285.553-1.285 1.29 0 4.61 3.259 8.342 7.252 8.342l113.086.046c.689 0 1.286-.553 1.286-1.29s-.597-1.29-1.286-1.29h-6.33a6.514 6.514 0 0 0 1.374-3.319v-.184h4.819c.78 0 1.423-.645 1.423-1.429V48.485a.731.731 0 0 0 0-.692z"/>
        <path fill="#E7D0AC" d="M11.153 35.073c-.938 0-1.699.66-1.699 1.475 0 .814.76 1.475 1.699 1.475.937 0 1.698-.66 1.698-1.475 0-.815-.76-1.475-1.698-1.475M22.213 28.62c-.937 0-1.698.661-1.698 1.475 0 .815.76 1.475 1.698 1.475s1.699-.66 1.699-1.475c0-.814-.76-1.474-1.699-1.474M33.09 35.073c-.937 0-1.697.66-1.697 1.475 0 .814.76 1.475 1.698 1.475.937 0 1.698-.66 1.698-1.475 0-.815-.76-1.475-1.698-1.475M41.26 51.065c.413 0 .78.37.78.784a.806.806 0 0 1-.78.783l-40.113-.184v2.443l40.113.184c1.79 0 3.213-1.475 3.213-3.226a3.2 3.2 0 0 0-3.213-3.226l-38.047-.185a.806.806 0 0 1-.78-.783c0-.415.367-.784.78-.784l40.112.185v-2.443L3.167 44.43H3.12A3.21 3.21 0 0 0 0 47.655a3.229 3.229 0 0 0 3.213 3.226l38.047.184z"/>
    </g>
</svg>
