<svg xmlns="http://www.w3.org/2000/svg" width="18" height="18" viewBox="0 0 18 18">
    <g fill="#E1C79B" fill-rule="evenodd">
        <path d="M.47 18h17.27v-1.77H.47zM.47 2.065h17.27V.295H.47zM8.933 10.021a.966.966 0 0 1-.952-.977c0-.539.427-.977.952-.977.525 0 .952.438.952.977a.966.966 0 0 1-.952.977m0-3.64c-1.431 0-2.596 1.194-2.596 2.663 0 1.47 1.165 2.664 2.596 2.664s2.596-1.195 2.596-2.664S10.364 6.38 8.933 6.38"/>
        <path d="M9.102 12.867c-3.409 0-5.784-2.57-6.626-3.641.838-1.073 3.201-3.638 6.626-3.638 3.409 0 5.783 2.547 6.626 3.61-.837 1.08-3.2 3.67-6.626 3.67zM17.44 8.73c-.126-.197-3.15-4.828-8.337-4.828-5.19 0-8.213 4.667-8.34 4.866l-.291.46.292.461c.126.199 3.15 4.866 8.34 4.866 5.19 0 8.213-4.704 8.34-4.904l.29-.462-.294-.459z"/>
    </g>
</svg>
