<svg xmlns="http://www.w3.org/2000/svg" xmlns:xlink="http://www.w3.org/1999/xlink" width="18" height="22" viewBox="0 0 18 22">
    <defs>
        <path id="a" d="M.969 5.454C.969 2.69 3.178.443 5.894.443c2.715 0 4.925 2.247 4.925 5.011 0 2.763-2.21 5.012-4.925 5.012-2.716 0-4.925-2.249-4.925-5.012zm1.696 0c0 1.811 1.449 3.285 3.229 3.285 1.779 0 3.228-1.474 3.228-3.285 0-1.811-1.449-3.285-3.228-3.285-1.78 0-3.229 1.474-3.229 3.285z"/>
    </defs>
    <g fill="none" fill-rule="evenodd">
        <path fill="#E1C79B" d="M8.894 9.138c-1.78 0-3.228-1.474-3.228-3.285 0-1.81 1.448-3.285 3.228-3.285 1.78 0 3.228 1.474 3.228 3.285 0 1.811-1.448 3.285-3.228 3.285m0-8.296c-2.715 0-4.925 2.248-4.925 5.011s2.21 5.012 4.925 5.012c2.716 0 4.925-2.249 4.925-5.012 0-2.763-2.21-5.01-4.925-5.01"/>
        <g transform="translate(3 .399)">
            <mask id="b" fill="#fff">
                <use xlink:href="#a"/>
            </mask>
            <path fill="#E1C79B" d="M-30 480h459.943v-816.399H-30z" mask="url(#b)"/>
            <path fill="#E1C79B" d="M-6.218 17.652h24.223V-6.744H-6.218z" mask="url(#b)"/>
        </g>
        <path fill="#E1C79B" d="M8.894 19.525c-2.848 0-4.875-.992-6.971-2.642 1.688-3.39 4.49-3.291 4.614-3.291h5c.134 0 2.64-.1 4.327 3.29-2.095 1.65-4.122 2.643-6.97 2.643m7.876-4.622c-.028-.041-.054-.086-.082-.126-.038-.055-.08-.105-.12-.158a6.739 6.739 0 0 0-4.754-2.722c-.076-.008-.154-.007-.23-.012v-.007h-.135c-.094-.004-.188-.014-.284-.014-.106 0-.21.009-.314.014H6.935c-.105-.005-.21-.014-.315-.014-.425 0-.84.044-1.243.12-.068.013-.135.025-.206.04-.093.022-.183.048-.275.072a6.754 6.754 0 0 0-.546.17l-.074.028c-.996.374-2.132 1.07-3.08 2.35-.028.04-.06.079-.088.12-.038.053-.073.114-.11.169A6.665 6.665 0 0 0 0 17.615c2.316 2.25 5.446 3.64 8.894 3.64 3.446 0 6.577-1.386 8.892-3.634a6.655 6.655 0 0 0-1.016-2.718"/>
    </g>
</svg>
