<svg xmlns="http://www.w3.org/2000/svg" width="19" height="19" viewBox="0 0 19 19">
    <g fill="#E1C79B" fill-rule="evenodd">
        <path d="M4.726 3.781a.947.947 0 0 1-.945-.945c0-.567.378-.945.945-.945.568 0 .946.378.946.945s-.378.945-.946.945zm2.647-1.89A2.753 2.753 0 0 0 4.726 0 2.753 2.753 0 0 0 2.08 1.89H0v1.891h2.08a2.753 2.753 0 0 0 2.646 1.89 2.753 2.753 0 0 0 2.647-1.89h11.532v-1.89H7.373zM12.288 10.398c-.567 0-.945-.378-.945-.945 0-.568.378-.946.945-.946s.945.378.945.946c0 .567-.378.945-.945.945m0-3.781a2.753 2.753 0 0 0-2.646 1.89H0v1.89h9.642a2.753 2.753 0 0 0 2.646 1.891 2.753 2.753 0 0 0 2.647-1.89h3.97v-1.89h-3.97a2.753 2.753 0 0 0-2.647-1.891M8.507 17.014c-.567 0-.945-.378-.945-.945s.378-.945.945-.945.945.378.945.945-.378.945-.945.945m0-3.78a2.753 2.753 0 0 0-2.646 1.89H0v1.89h5.86a2.753 2.753 0 0 0 2.646 1.891 2.753 2.753 0 0 0 2.647-1.89h7.75v-1.891h-7.75a2.753 2.753 0 0 0-2.647-1.89"/>
    </g>
</svg>
