<svg xmlns="http://www.w3.org/2000/svg" xmlns:xlink="http://www.w3.org/1999/xlink" width="228" height="208" viewBox="0 0 228 208">
    <defs>
        <path id="a" d="M0 208h227.675V.693H0z"/>
    </defs>
    <g fill="none" fill-rule="evenodd">
        <path fill="#E1C79B" d="M100.845 82.694L116.86 98.71l-15.004 15.003-4.263-4.26 10.742-10.743-11.752-11.753z"/>
        <g transform="translate(0 -.693)">
            <path fill="#575862" d="M46.437 185.414v3.509c0 6.887 5.602 12.489 12.489 12.489h28.79a14.49 14.49 0 0 1-2.403-8c0-2.953.888-5.7 2.402-7.998H46.437zm45.464 7.998c0 4.41 3.588 8 7.999 8 4.41 0 7.999-3.59 7.999-8 0-4.411-3.588-7.998-8-7.998-4.41 0-7.998 3.587-7.998 7.998zm20.183 8h28.79c6.886 0 12.489-5.602 12.489-12.49v-3.508h-41.278a14.494 14.494 0 0 1 2.402 7.998 14.49 14.49 0 0 1-2.403 8zm-65.647-61.073v38.487h106.926V123.01h6.588v65.912c0 10.519-8.558 19.077-19.077 19.077H58.926c-10.52 0-19.077-8.558-19.077-19.077v-48.584h6.588zM46.437 19.77c0-6.886 5.602-12.488 12.489-12.488h81.948c6.886 0 12.489 5.602 12.489 12.489v2.005H46.437V19.77zm-6.588 0v37.984h6.588v-29.39h106.926v33.69l6.588-2.063V19.77c0-10.52-8.558-19.077-19.077-19.077H58.926c-10.52 0-19.077 8.558-19.077 19.077z"/>
            <path fill="#E1C79B" d="M227.675 131.805H122.704v6.027h7.746v6.297h6.029v-6.297H213.9v6.297h6.029v-6.297h7.746zM156.27 71.859a3.376 3.376 0 1 0 0 6.752 3.376 3.376 0 0 0 0-6.752M192.598 71.859a3.376 3.376 0 1 0 0 6.752 3.376 3.376 0 0 0 0-6.752M175.309 63.963a3.376 3.376 0 1 0 0 6.752 3.376 3.376 0 0 0 0-6.752"/>
            <path fill="#E1C79B" d="M137.299 99.805h73.006v5.941h-73.006a2.974 2.974 0 0 1-2.97-2.97 2.974 2.974 0 0 1 2.97-2.971zm3.014-11.968h73.104a2.974 2.974 0 0 1 2.97 2.97 2.974 2.974 0 0 1-2.97 2.971h-73.104v-5.941zm34.996-27.847c17.859 0 32.636 9.543 34.74 21.82h-69.48c2.103-12.277 16.881-21.82 34.74-21.82zm0 61.208c-31.653 0-34.677-.769-34.966-9.425h69.896c-.51 8.947-4.661 9.425-34.93 9.425zm-40.962-9.933c.753 15.948 9.395 15.961 40.962 15.961 32.333 0 41.024 0 41.024-18.467V99.31c3.533-1.215 6.082-4.563 6.082-8.503 0-3.998-2.622-7.391-6.236-8.559-1.747-15.815-19.404-28.285-40.87-28.285-22.62 0-41.024 13.844-41.024 30.86V94.296c-3.484 1.242-5.985 4.575-5.985 8.48 0 3.927 2.533 7.264 6.047 8.489z"/>
            <mask id="b" fill="#fff">
                <use xlink:href="#a"/>
            </mask>
            <path fill="#E1C79B" d="M6.029 137.325h63.596V60.767H6.029v76.558zM0 143.352h75.653V54.74H0v88.612z" mask="url(#b)"/>
            <path fill="#E1C79B" d="M12.1 123.01h44.799v-6.027H12.1zM12.1 131.904h22.4v-6.027H12.1zM30.733 77.618c1.85 0 3.589.82 4.769 2.25l2.324 2.82 2.326-2.818a6.163 6.163 0 0 1 4.769-2.252 6.183 6.183 0 0 1 6.175 6.175c0 1.45-.517 2.86-1.46 3.976-.778.762-7.252 6.467-12.286 10.883-4.763-4.551-10.834-10.363-11.294-10.838a6.164 6.164 0 0 1-1.498-4.021 6.182 6.182 0 0 1 6.175-6.175m4.448 27.298l1.994 1.903 2.073-1.815c14.206-12.44 14.71-13.02 14.813-13.14l.106-.116a12.207 12.207 0 0 0 2.957-7.955c0-6.728-5.474-12.202-12.203-12.202a12.16 12.16 0 0 0-7.094 2.27 12.165 12.165 0 0 0-7.094-2.27c-6.73 0-12.204 5.474-12.204 12.202 0 2.916 1.052 5.742 2.997 7.999.115.13.462.53 13.655 13.124" mask="url(#b)"/>
        </g>
    </g>
</svg>
