<svg xmlns="http://www.w3.org/2000/svg" xmlns:xlink="http://www.w3.org/1999/xlink" width="237" height="208" viewBox="0 0 237 208">
    <defs>
        <path id="a" d="M120.385.693H.283V208h120.102V.693z"/>
        <path id="c" d="M0 208.307h236.623V1H0z"/>
    </defs>
    <g fill="none" fill-rule="evenodd" transform="translate(0 -1)">
        <g transform="translate(58 .307)">
            <mask id="b" fill="#fff">
                <use xlink:href="#a"/>
            </mask>
            <path fill="#575862" d="M101.308 201.412h-28.79a14.496 14.496 0 0 0 2.403-7.998 14.49 14.49 0 0 0-2.403-8h41.279v3.509c0 6.886-5.603 12.489-12.49 12.489zM6.87 188.922v-3.508H48.15a14.49 14.49 0 0 0-2.403 8c0 2.952.888 5.699 2.402 7.998h-28.79c-6.886 0-12.488-5.603-12.488-12.49zm0-10.096h106.926V28.364H6.87v150.462zm61.462 14.588c0 4.41-3.588 7.998-8 7.998-4.41 0-7.998-3.587-7.998-7.998s3.588-8 7.999-8c4.41 0 7.999 3.589 7.999 8zM19.36 7.282h81.948c6.886 0 12.489 5.602 12.489 12.489v2.004H6.87V19.77c0-6.887 5.602-12.49 12.489-12.49zm81.948-6.59H19.36C8.84.693.283 9.253.283 19.772v169.152C.283 199.442 8.84 208 19.36 208h81.948c10.519 0 19.077-8.558 19.077-19.077V19.77c0-10.52-8.558-19.078-19.077-19.078z" mask="url(#b)"/>
        </g>
        <mask id="d" fill="#fff">
            <use xlink:href="#c"/>
        </mask>
        <path fill="#E1C79B" d="M86.536 143.042h63.596V66.484H86.536v76.558zm-6.029 6.027h75.653V60.457H80.507v88.612z" mask="url(#d)"/>
        <path fill="#E1C79B" d="M102.553 77.776A4.776 4.776 0 1 1 93 77.775a4.776 4.776 0 0 1 9.553.001M21.299 77.776a4.776 4.776 0 1 1-9.553-.001 4.776 4.776 0 0 1 9.553.001M92.607 128.727h44.799V122.7H92.607zM92.606 137.621h22.4v-6.027h-22.4z" mask="url(#d)"/>
        <path fill="#E1C79B" d="M6.028 143.042h63.596V66.484H6.028v76.558zM0 149.069h75.653V60.457H0v88.612z" mask="url(#d)"/>
        <path fill="#E1C79B" d="M12.1 128.727h44.799V122.7H12.1zM12.099 137.621h22.4v-6.027h-22.4zM166.999 143.042h63.596V66.484h-63.596v76.558zm-6.029 6.027h75.653V60.457H160.97v88.612z" mask="url(#d)"/>
        <path fill="#E1C79B" d="M182.623 77.39a4.776 4.776 0 1 1-9.553-.001 4.776 4.776 0 0 1 9.553 0M173.071 128.727h44.799V122.7h-44.799zM173.07 137.621h22.4v-6.027h-22.4z" mask="url(#d)"/>
    </g>
</svg>
