<svg xmlns="http://www.w3.org/2000/svg" xmlns:xlink="http://www.w3.org/1999/xlink" width="121" height="208" viewBox="0 0 121 208">
    <defs>
        <path id="a" d="M120.102.693H0V208h120.102V.693z"/>
        <path id="c" d="M0 208.307h120.102V1H0z"/>
    </defs>
    <g fill="none" fill-rule="evenodd" transform="translate(0 -1)">
        <g transform="translate(0 .307)">
            <mask id="b" fill="#fff">
                <use xlink:href="#a"/>
            </mask>
            <path fill="#575862" d="M101.025 201.412h-28.79a14.493 14.493 0 0 0 2.403-8c0-2.953-.888-5.7-2.402-7.998h41.278v3.509c0 6.886-5.602 12.489-12.49 12.489zm-94.436-12.49v-3.508h41.277a14.494 14.494 0 0 0-2.402 7.998c0 2.953.888 5.7 2.403 8h-28.79c-6.886 0-12.488-5.603-12.488-12.49zm0-10.096h106.926V28.364H6.589v150.462zm61.46 14.586c0 4.41-3.587 8-7.998 8s-8-3.59-8-8c0-4.411 3.589-7.998 8-7.998 4.41 0 7.999 3.587 7.999 7.998zM19.079 7.282h81.947c6.887 0 12.489 5.602 12.489 12.489v2.004H6.589V19.77c0-6.887 5.602-12.49 12.489-12.49zm81.947-6.59H19.078C8.558.693 0 9.253 0 19.772v169.152C0 199.442 8.559 208 19.078 208h81.947c10.519 0 19.077-8.558 19.077-19.077V19.77c0-10.52-8.558-19.078-19.077-19.078z" mask="url(#b)"/>
        </g>
        <mask id="d" fill="#fff">
            <use xlink:href="#c"/>
        </mask>
        <path fill="#E1C79B" d="M28.252 136.453h63.596V59.895H28.252v76.558zm-6.028 6.028h75.653V53.869H22.224v88.612z" mask="url(#d)"/>
        <path fill="#E1C79B" d="M34.324 122.138h44.799v-6.027H34.324zM34.324 131.032h22.4v-6.027h-22.4zM60.05 94.818l7.52 3.102-.627-8.11 5.274-6.192-7.906-1.91-4.26-6.93-4.26 6.93-7.906 1.91 5.274 6.192-.627 8.11 7.519-3.102zm-14.284 12.416l1.19-15.409-10.02-11.763 15.023-3.63 8.092-13.165 8.093 13.165 15.02 3.63-10.018 11.763 1.19 15.41-14.285-5.896-14.285 5.895z" mask="url(#d)"/>
    </g>
</svg>
