<svg xmlns="http://www.w3.org/2000/svg" xmlns:xlink="http://www.w3.org/1999/xlink" width="37" height="25" viewBox="0 0 37 25">
    <defs>
        <path id="a" d="M0 24.52h36.63V.21H0v24.31z"/>
    </defs>
    <g fill="none" fill-rule="evenodd">
        <g transform="translate(0 .27)">
            <mask id="b" fill="#fff">
                <use xlink:href="#a"/>
            </mask>
            <path fill="#E7D0AC" d="M34.967 19.393h-2.272l-.033-.076a3.706 3.706 0 0 0-3.4-2.237 3.71 3.71 0 0 0-3.401 2.237l-.034.076h-2.672V6.13h7.389l1.395 2.613h-5.551a.832.832 0 0 0-.832.832v4.702c0 .459.373.832.832.832h8.58v4.284zm-5.705 3.437a2.045 2.045 0 0 1-2.043-2.043c0-1.126.917-2.043 2.043-2.043 1.126 0 2.043.917 2.043 2.043a2.045 2.045 0 0 1-2.043 2.043zm5.189-9.384h-7.232v-3.04h5.608l1.624 3.04zm-12.959 5.947h-2.639c-.016.003-.03.005-.046.005h-.083l-.033-.076a3.706 3.706 0 0 0-3.402-2.241 3.71 3.71 0 0 0-3.4 2.236l-.034.076H9.642l-.033-.076a3.708 3.708 0 0 0-3.4-2.236 3.707 3.707 0 0 0-3.4 2.236l-.033.076H1.663V1.874H18.93c.818 0 1.424.211 1.853.645.691.7.71 1.78.71 1.901v14.973zm-4.76 2.837c-.385.387-.898.6-1.443.6a2.045 2.045 0 0 1-2.043-2.043c0-1.126.917-2.043 2.043-2.043 1.126 0 2.042.917 2.042 2.043 0 .544-.212 1.057-.598 1.443zm-10.523.599a2.044 2.044 0 0 1-2.043-2.042c0-1.127.917-2.044 2.043-2.044 1.126 0 2.043.917 2.043 2.044a2.045 2.045 0 0 1-2.043 2.042zm30.324-9.015l-4.757-8.908a.83.83 0 0 0-.734-.44h-7.887v-.02c.005-.19.015-1.86-1.171-3.078C21.235.6 20.207.21 18.929.21H.832A.833.833 0 0 0 0 1.042v19.184c0 .459.373.831.832.831h1.68l.011.114a3.699 3.699 0 0 0 2.287 3.045s.687.303 1.399.303c.769 0 1.4-.303 1.4-.303a3.7 3.7 0 0 0 2.286-3.045l.011-.114h1.685l.012.114a3.698 3.698 0 0 0 2.286 3.045s.698.303 1.4.303c.77 0 1.4-.303 1.4-.303a3.698 3.698 0 0 0 2.286-3.045l.012-.114h6.577l.012.114a3.698 3.698 0 0 0 2.287 3.045s.696.303 1.4.303c.784 0 1.398-.303 1.398-.303a3.7 3.7 0 0 0 2.287-3.045l.012-.114h2.839c.459 0 .831-.373.831-.832v-6.02a.837.837 0 0 0-.097-.39z" mask="url(#b)"/>
        </g>
        <path fill="#E7D0AC" d="M13.067 5.473h-3.74v1.884h1.452v5.866H9.327v1.884h5.193v-1.884h-1.453z"/>
    </g>
</svg>
